<?xml version="1.0" encoding="utf-8"?>
<!DOCTYPE svg PUBLIC "-//W3C//DTD SVG 20010904//EN" "http://www.w3.org/TR/2001/REC-SVG-20010904/DTD/svg10.dtd">
<svg version="1.0" xmlns="http://www.w3.org/2000/svg" width="502pt" height="502pt" viewBox="0 0 502 502" style="" preserveAspectRatio="xMidYMid meet">
<g fill="#3AA7FFFF" stroke="#3AA7FFFF">
<path d="M 168.000 181.353 L 168.000 192.562 177.250 198.009 C 182.338 201.005 201.060 212.111 218.856 222.688 L 251.213 241.919 255.906 239.209 C 258.487 237.719 270.342 230.900 282.251 224.056 L 303.904 211.612 304.202 207.556 L 304.500 203.500 316.000 203.847 C 322.325 204.037 327.666 204.353 327.869 204.549 C 328.555 205.211 307.511 230.984 306.279 230.992 C 305.607 230.996 304.707 229.694 304.279 228.098 L 303.500 225.195 288.000 234.177 C 279.475 239.118 267.709 245.854 261.854 249.146 L 251.207 255.133 217.141 234.967 C 180.911 213.519 179.086 212.748 173.394 216.478 C 168.488 219.692 167.705 223.701 168.217 243.000 C 168.729 262.301 169.811 266.319 175.650 270.580 C 181.944 275.174 250.605 315.325 252.029 315.244 C 252.869 315.197 270.935 305.138 292.174 292.891 C 319.393 277.196 331.265 269.822 332.395 267.908 C 333.586 265.893 334.000 262.558 334.000 254.989 C 334.000 246.014 333.806 244.861 332.388 245.405 C 331.501 245.745 313.479 255.966 292.340 268.118 C 271.201 280.270 253.139 290.387 252.202 290.601 C 251.263 290.815 238.172 283.658 223.000 274.636 C 206.916 265.072 195.106 258.639 194.550 259.142 C 194.028 259.614 193.083 260.000 192.450 260.000 C 191.346 260.000 179.522 243.135 180.179 242.496 C 181.049 241.652 192.428 237.000 193.624 237.000 C 194.524 237.000 195.000 238.185 195.000 240.424 C 195.000 242.967 195.708 244.406 197.750 246.016 C 200.235 247.975 224.586 262.514 244.105 273.693 L 251.710 278.049 290.105 255.988 C 311.222 243.854 329.625 232.808 331.000 231.440 L 333.500 228.953 333.500 207.995 L 333.500 187.037 330.231 183.769 C 324.052 177.591 322.976 177.975 285.207 199.837 C 262.445 213.012 251.329 218.922 250.063 218.520 C 249.045 218.197 230.164 207.180 208.106 194.038 L 168.000 170.144 168.000 181.353 "/></g>
<g fill="#1384D1FF" stroke="#1384D1FF">
<path d="M 245.500 116.425 C 244.400 117.152 227.975 127.008 209.000 138.329 C 190.025 149.649 172.752 159.992 170.616 161.312 L 166.731 163.713 175.620 169.211 C 180.509 172.235 185.430 175.002 186.555 175.359 C 188.083 175.844 196.302 171.455 218.962 158.055 C 245.385 142.431 249.593 140.245 251.411 141.205 C 252.560 141.812 266.737 149.927 282.916 159.239 C 303.366 171.009 312.968 176.016 314.416 175.667 C 315.562 175.390 318.511 174.420 320.968 173.512 C 325.768 171.737 330.339 172.090 335.215 174.611 L 338.000 176.051 337.995 172.276 C 337.985 164.976 337.035 164.271 293.040 138.905 C 270.236 125.757 250.661 115.024 249.540 115.052 C 248.418 115.081 246.600 115.699 245.500 116.425 "/></g>
<g fill="#1384D1FF" stroke="#1384D1FF">
<path d="M 220.207 161.237 C 204.143 170.717 191.000 178.739 191.000 179.063 C 191.000 179.867 211.598 192.082 214.024 192.716 C 215.301 193.050 221.316 190.060 231.552 184.001 C 240.123 178.928 247.924 174.571 248.889 174.319 C 249.911 174.052 257.163 177.644 266.255 182.921 C 274.842 187.905 282.957 192.479 284.288 193.086 C 286.419 194.056 288.171 193.378 298.893 187.437 C 305.594 183.723 311.246 180.411 311.452 180.077 C 311.781 179.545 251.130 144.000 249.893 144.000 C 249.629 144.000 236.271 151.757 220.207 161.237 "/></g>
<g fill="#1384D1FF" stroke="#1384D1FF">
<path d="M 344.661 333.258 C 343.151 334.363 342.975 336.226 343.220 348.508 L 343.500 362.500 346.815 362.818 C 352.104 363.326 353.000 361.843 353.000 352.578 C 353.000 342.846 354.637 340.226 359.000 342.976 C 360.091 343.663 360.636 346.453 361.000 353.211 L 361.500 362.500 364.877 362.823 C 366.735 363.000 368.760 362.642 369.377 362.027 C 369.995 361.412 370.725 357.038 371.000 352.308 C 371.390 345.603 371.882 343.467 373.231 342.620 C 374.571 341.780 375.363 341.933 376.731 343.298 C 378.055 344.619 378.626 347.254 379.000 353.781 L 379.500 362.500 383.500 362.500 L 387.500 362.500 387.784 351.765 C 388.107 339.547 386.989 336.080 381.875 333.436 C 378.245 331.558 374.523 332.193 371.250 335.248 L 369.000 337.349 366.750 335.248 C 363.142 331.881 359.313 331.392 355.960 333.871 C 352.578 336.372 352.000 336.479 352.000 334.607 C 352.000 332.043 347.464 331.209 344.661 333.258 "/></g>
<g fill="#3AA7FFFF" stroke="#3AA7FFFF">
<path d="M 95.571 333.571 C 94.249 334.894 94.000 338.270 94.000 354.871 C 94.000 375.983 94.230 377.000 99.000 377.000 C 103.107 377.000 104.000 375.262 104.000 367.265 C 104.000 360.323 104.104 359.985 105.934 360.965 C 106.998 361.534 109.666 362.000 111.863 362.000 C 119.821 362.000 126.647 351.520 123.970 343.410 C 121.252 335.175 114.058 330.695 107.771 333.322 C 104.883 334.529 104.086 334.536 102.494 333.372 C 100.021 331.563 97.507 331.636 95.571 333.571 M 113.171 343.655 C 115.795 346.029 115.472 349.645 112.459 351.619 C 107.420 354.921 102.124 349.512 105.440 344.451 C 107.299 341.615 110.547 341.280 113.171 343.655 "/></g>
<g fill="#333333FF" stroke="#333333FF">
<path d="M 181.230 332.837 C 180.253 333.457 180.022 338.594 180.230 355.059 C 180.480 374.892 180.635 376.500 182.329 376.825 C 183.335 377.019 185.248 376.904 186.579 376.570 C 188.887 375.990 189.000 375.590 189.000 367.981 C 189.000 360.721 189.854 358.337 191.500 361.000 C 191.840 361.550 194.101 362.000 196.524 362.000 C 208.186 362.000 214.018 346.785 205.901 337.540 C 201.800 332.869 197.015 331.347 192.894 333.403 C 190.135 334.779 189.535 334.788 187.666 333.479 C 185.321 331.836 183.148 331.620 181.230 332.837 M 198.429 343.571 C 200.467 345.609 200.431 348.867 198.345 351.171 C 195.143 354.710 189.750 352.406 189.750 347.500 C 189.750 342.739 195.151 340.294 198.429 343.571 "/></g>
<g fill="#333333FF" stroke="#333333FF">
<path d="M 244.500 332.733 C 237.675 334.442 232.326 343.031 233.550 350.317 C 234.589 356.502 241.299 363.000 246.646 363.000 C 248.796 363.000 251.509 362.331 252.676 361.514 C 254.561 360.194 254.863 360.201 255.390 361.575 C 255.813 362.677 257.066 363.032 259.742 362.811 L 263.500 362.500 263.779 348.077 C 263.988 337.208 263.742 333.453 262.779 332.842 C 260.749 331.554 257.275 331.868 255.658 333.485 C 254.346 334.797 253.841 334.798 251.336 333.492 C 248.395 331.958 247.841 331.896 244.500 332.733 M 252.171 343.655 C 255.652 346.805 253.744 353.000 249.294 353.000 C 246.153 353.000 243.000 350.418 243.000 347.845 C 243.000 345.544 246.438 342.000 248.671 342.000 C 249.590 342.000 251.165 342.745 252.171 343.655 "/></g>
<g fill="#333333FF" stroke="#333333FF">
<path d="M 303.017 333.851 C 297.973 336.557 295.737 340.124 295.226 346.284 C 294.340 356.971 301.045 363.926 312.282 363.978 C 321.551 364.021 326.152 360.326 322.703 355.609 C 321.592 354.088 320.696 353.965 316.424 354.741 C 310.993 355.728 306.512 354.776 305.617 352.445 C 305.161 351.256 306.537 351.000 313.376 351.000 C 320.161 351.000 321.995 350.664 323.345 349.171 C 325.448 346.848 325.501 340.160 323.439 337.217 C 319.766 331.972 309.634 330.302 303.017 333.851 M 315.434 342.689 C 316.402 345.211 315.085 346.000 309.906 346.000 C 305.194 346.000 304.988 345.891 306.030 343.944 C 308.025 340.216 314.170 339.396 315.434 342.689 "/></g>
<g fill="#1384D1FF" stroke="#1384D1FF">
<path d="M 238.128 187.645 L 226.821 194.290 231.160 196.989 C 233.547 198.473 239.191 201.831 243.701 204.450 L 251.902 209.213 263.451 202.507 C 269.803 198.819 275.000 195.678 275.000 195.529 C 275.000 195.021 251.160 181.000 250.296 181.000 C 249.822 181.000 244.347 183.990 238.128 187.645 "/></g>
<g fill="#3AA7FFFF" stroke="#3AA7FFFF">
<path d="M 130.750 333.080 C 129.222 333.970 129.000 335.789 129.000 347.427 C 129.000 362.270 129.442 363.369 135.185 362.818 L 138.500 362.500 138.768 354.000 C 138.994 346.792 139.353 345.234 141.128 343.750 C 146.556 339.212 150.000 342.883 150.000 353.206 C 150.000 361.795 150.980 363.318 156.185 362.818 L 159.500 362.500 159.772 353.000 C 160.074 342.464 158.703 338.360 153.606 334.555 C 150.297 332.085 143.697 331.874 141.406 334.166 C 139.912 335.659 139.638 335.638 137.893 333.893 C 135.801 331.801 133.413 331.529 130.750 333.080 "/></g>
<g fill="#333333FF" stroke="#333333FF">
<path d="M 274.667 322.667 C 274.300 323.033 274.000 325.528 274.000 328.211 C 274.000 331.532 273.601 333.036 272.750 332.925 C 270.077 332.578 269.196 333.084 268.645 335.280 C 267.700 339.043 268.962 342.000 271.511 342.000 C 273.660 342.000 273.809 342.449 274.151 349.979 C 274.624 360.400 276.353 362.438 284.753 362.475 L 290.500 362.500 290.500 358.510 C 290.500 354.858 290.246 354.476 287.500 354.004 C 284.620 353.509 284.488 353.259 284.200 347.744 L 283.900 342.000 287.843 342.000 C 292.006 342.000 293.000 340.931 293.000 336.453 C 293.000 333.543 289.952 331.723 286.521 332.584 C 284.139 333.182 284.000 332.995 284.000 329.190 C 284.000 323.043 283.283 322.000 279.060 322.000 C 277.010 322.000 275.033 322.300 274.667 322.667 "/></g>
<g fill="#1384D1FF" stroke="#1384D1FF">
<path d="M 428.000 317.729 C 425.293 318.759 425.031 320.337 425.039 335.500 C 425.052 358.177 426.510 361.862 435.818 362.757 C 440.200 363.178 440.947 362.968 441.987 361.025 C 443.859 357.526 442.467 354.178 438.737 353.213 L 435.500 352.375 435.235 335.937 C 435.010 321.920 434.724 319.316 433.294 318.250 C 431.511 316.921 430.409 316.812 428.000 317.729 "/></g>
<g fill="#3AA7FFFF" stroke="#3AA7FFFF">
<path d="M 76.750 318.056 C 75.179 318.993 75.000 321.092 75.000 338.595 C 75.000 358.076 75.002 358.093 77.509 360.600 C 79.605 362.696 80.798 363.059 84.759 362.804 L 89.500 362.500 89.500 358.500 C 89.500 355.158 89.143 354.449 87.332 354.191 C 85.217 353.890 85.155 353.451 84.832 336.522 C 84.649 326.975 84.274 318.938 83.998 318.663 C 82.802 317.471 78.355 317.099 76.750 318.056 "/></g>
<g fill="#1384D1FF" stroke="#1384D1FF">
<path d="M 411.173 318.059 L 408.847 318.992 409.173 338.584 L 409.500 358.177 412.368 360.642 C 414.506 362.479 416.160 363.029 418.868 362.803 C 422.357 362.512 422.512 362.337 422.803 358.334 C 423.056 354.864 422.764 354.060 421.053 353.517 C 419.089 352.893 419.000 352.134 419.000 335.908 L 419.000 318.950 416.435 317.975 C 415.024 317.439 413.787 317.029 413.685 317.063 C 413.583 317.098 412.453 317.546 411.173 318.059 "/></g>
<g fill="#333333FF" stroke="#333333FF">
<path d="M 216.750 317.689 C 215.156 318.106 215.000 319.951 215.000 338.382 C 215.000 362.507 214.971 362.426 223.647 362.470 L 229.500 362.500 229.500 358.514 C 229.500 355.321 229.102 354.452 227.500 354.148 C 226.400 353.939 225.169 353.258 224.765 352.634 C 224.361 352.010 224.024 344.203 224.015 335.285 C 224.001 320.286 223.855 318.993 222.066 318.035 C 220.054 316.958 219.648 316.932 216.750 317.689 "/></g>
<g fill="#1384D1FF" stroke="#1384D1FF">
<path d="M 395.720 333.214 C 394.136 334.374 393.971 336.053 394.220 348.508 L 394.500 362.500 397.815 362.818 C 403.517 363.366 404.002 362.211 403.985 348.128 C 403.976 341.182 403.634 334.973 403.225 334.329 C 402.019 332.434 397.669 331.787 395.720 333.214 "/></g>
<g fill="#1384D1FF" stroke="#1384D1FF">
<path d="M 394.394 319.416 C 394.095 320.194 393.997 322.107 394.175 323.666 C 394.467 326.214 394.921 326.531 398.666 326.803 C 402.177 327.059 402.937 326.773 403.506 324.981 C 403.877 323.812 403.906 321.763 403.571 320.428 C 403.053 318.362 402.364 318.000 398.950 318.000 C 396.412 318.000 394.738 318.520 394.394 319.416 "/></g>
<g fill="#ADD4EFFF" stroke="#ADD4EFFF">
<path d="M 332.975 244.658 C 333.548 244.942 334.101 249.544 334.228 255.083 L 334.457 265.000 334.478 254.833 C 334.494 247.381 334.160 244.598 333.225 244.408 C 332.524 244.266 332.411 244.379 332.975 244.658 "/></g>
<g fill="#D3D3D3FF" stroke="#D3D3D3FF">
<path d="M 306.000 351.941 C 306.000 352.459 306.520 353.203 307.155 353.595 C 307.853 354.027 308.038 353.871 307.623 353.199 C 307.151 352.435 309.207 351.981 314.218 351.743 L 321.500 351.397 313.750 351.199 C 309.433 351.088 306.000 351.417 306.000 351.941 "/></g>
<g fill="#717171FF" stroke="#717171FF">
<path d="M 189.193 366.750 L 189.385 373.500 189.741 367.221 C 189.983 362.959 190.452 361.161 191.203 361.625 C 191.871 362.038 192.026 361.852 191.595 361.155 C 189.898 358.408 189.013 360.468 189.193 366.750 "/></g>
<g fill="#ACACACFF" stroke="#ACACACFF">
<path d="M 271.250 342.631 C 272.601 343.029 273.049 344.385 273.214 348.573 L 273.429 354.000 273.464 348.264 C 273.496 343.249 273.248 342.501 271.500 342.321 C 269.946 342.161 269.890 342.230 271.250 342.631 "/></g>
</svg>
